<svg height="480pt" viewBox="-64 0 480 480.03768" width="480pt" xmlns="http://www.w3.org/2000/svg"><path d="m48.019531 224.039062h-.273437l78.191406 177.160157c8.371094-.730469 17.050781-1.160157 26.082031-1.160157 4.640625 0 9.167969.117188 13.597657.320313l-81.871094-187.25c-10.546875 7.132813-22.992188 10.941406-35.726563 10.929687zm0 0"/><path d="m152.019531 416.039062c-68.402343 0-120 24.078126-120 56 0 4.417969 3.582031 8 8 8h224c4.417969 0 8-3.582031 8-8 0-31.921874-51.601562-56-120-56zm0 0"/><path d="m350.980469 111.636719c-17.132813-29.71875-48.859375-48-83.160157-47.917969l-34.441406-59.679688c-1.054687-1.851562-2.804687-3.207031-4.863281-3.761718-2.058594-.554688-4.253906-.2695315-6.097656.800781l-69.277344 40c-1.851563 1.054687-3.207031 2.804687-3.761719 4.863281-.558594 2.058594-.269531 4.253906.800782 6.097656l34.640624 59.832032c-17.210937 29.585937-17.273437 66.121094-.160156 95.765625 2.234375 3.808593 7.109375 5.125 10.957032 2.960937l152.402343-88c1.851563-1.054687 3.203125-2.804687 3.761719-4.863281.554688-2.058594.265625-4.253906-.800781-6.097656zm0 0"/><path d="m109.242188 141.4375 55.335937-32.542969-19.238281-33.273437-57.824219 34.160156c10.304687 8.085938 17.886719 19.132812 21.726563 31.65625zm0 0"/><path d="m96.019531 160.039062c0 26.507813-21.492187 48-48 48-26.511719 0-47.9999998-21.492187-47.9999998-48 0-26.511718 21.4882808-48 47.9999998-48 26.507813 0 48 21.488282 48 48zm0 0"/></svg>